<?xml version="1.0" standalone="no"?>
<!DOCTYPE svg PUBLIC "-//W3C//DTD SVG 20010904//EN"
 "http://www.w3.org/TR/2001/REC-SVG-20010904/DTD/svg10.dtd">
<svg version="1.0" xmlns="http://www.w3.org/2000/svg"
 width="192.000000pt" height="192.000000pt" viewBox="0 0 192.000000 192.000000"
 preserveAspectRatio="xMidYMid meet">
<metadata>
Created by potrace 1.11, written by Peter Selinger 2001-2013
</metadata>
<g transform="translate(0.000000,192.000000) scale(0.100000,-0.100000)"
fill="#000000" stroke="none">
<path d="M755 1639 c-205 -21 -511 -101 -673 -175 l-63 -29 3 -84 c3 -71 6
-85 20 -87 16 -2 18 7 18 71 l0 74 47 21 c69 31 274 98 372 121 170 41 343 58
541 54 102 -2 203 -7 225 -10 39 -7 159 -30 200 -39 92 -20 219 -62 335 -111
l75 -32 5 -73 c4 -60 8 -74 23 -76 15 -2 17 8 17 86 l0 88 -93 41 c-168 73
-355 125 -562 156 -68 10 -405 13 -490 4z"/>
<path d="M1263 1324 c-95 -46 -150 -136 -138 -228 13 -108 52 -147 250 -246
134 -67 152 -79 168 -112 20 -40 17 -63 -12 -96 -25 -30 -62 -41 -112 -36 -91
11 -155 63 -194 160 -23 57 -25 59 -63 62 l-40 3 2 -137 1 -138 30 -2 c41 -2
55 5 55 26 0 31 19 33 50 7 63 -54 202 -76 301 -48 108 30 189 129 189 231 -1
121 -54 178 -255 269 -77 35 -150 74 -163 85 -12 12 -25 38 -28 57 -5 29 -1
41 19 65 23 26 31 29 84 29 79 0 129 -33 173 -116 30 -56 34 -60 63 -57 l32 3
0 115 0 115 -37 3 c-33 3 -38 0 -44 -22 -3 -14 -7 -26 -8 -26 0 0 -28 14 -60
30 -80 41 -184 42 -263 4z"/>
<path d="M139 1338 c-1 -2 -2 -54 -3 -115 l-2 -113 38 0 c27 0 38 4 38 15 0 8
-1 16 -1 18 -6 9 45 87 66 101 31 20 172 29 178 12 3 -10 1 -560 -2 -593 -2
-28 -41 -53 -81 -53 -39 0 -40 -1 -40 -35 l0 -35 243 0 243 0 -2 28 c-1 15 -2
30 -3 33 0 4 -22 9 -48 12 -77 8 -74 -8 -74 332 0 69 0 169 1 224 l0 98 69 -3
c39 -1 83 -10 99 -18 27 -14 56 -59 75 -118 5 -13 17 -18 42 -18 39 0 37 -7
37 115 0 36 -1 76 -1 90 l-1 25 -435 0 c-239 0 -436 -1 -436 -2z"/>
<path d="M20 595 l0 -86 68 -30 c114 -51 354 -124 472 -143 19 -3 46 -8 60
-10 186 -34 510 -39 649 -11 12 2 42 6 65 9 111 13 352 87 493 152 l73 33 0
85 c0 79 -2 86 -20 86 -18 0 -20 -7 -20 -73 l0 -73 -62 -27 c-156 -67 -338
-123 -468 -142 -20 -3 -47 -8 -60 -10 -14 -3 -70 -8 -125 -12 -365 -25 -674
27 -1052 178 l-33 13 0 73 c0 66 -2 73 -20 73 -18 0 -20 -7 -20 -85z"/>
</g>
</svg>
